# xmcd
#
# Track frame offsets:
# 150
# 20400
# 36217
# 60862
# 74590
# 93060
# 112107
# 131972
# 155265
# 176155
#
# Disc length: 2614 seconds
#
#
# Revision: 2
# Processed by: cddbd v1.5.1PL2 Copyright (c) Steve Scherf et al.
# Submitted via: FreeRIP 2.944 
#
DISCID=840a340a
DTITLE=Steve Earle - Copperhead Road
DYEAR=1988
DGENRE=Country
TTITLE0=Copperhead Road
TTITLE1=Snake Oil
TTITLE2=Back To The Wall
TTITLE3=The Devil's Right Hand
TTITLE4=Johnny Come Lately
TTITLE5=Even When I'm Blue
TTITLE6=You Belong To Me
TTITLE7=Waiting On You
TTITLE8=Once You Love
TTITLE9=Nothing But A Child
EXTD=YEAR: 1988
EXTT0=
EXTT1=
EXTT2=
EXTT3=
EXTT4=
EXTT5=
EXTT6=
EXTT7=
EXTT8=
EXTT9=
PLAYORDER=
